# xmcd
#
# Track frame offsets:
#	182
#	22090
#	38197
#	55090
#	67515
#	78935
#	91957
#	113767
#	131870
#	146282
#	160540
#	173570
#	187597
#	200785
#	213112
#
# Disc length: 3009 seconds
#
# Revision: 1
# Processed by: cddbd v1.4PL0 Copyright (c) Steve Scherf et al.
# Submitted via: MusicWizard 6.0.1
#
DISCID=b80bbf0f
DTITLE=Howlin' Wolf - I'm The Wolf
DYEAR=1989
DGENRE=Blues
TTITLE0=Speak Now Woman
TTITLE1=Trying To Forget You
TTITLE2=Coon On The Moon
TTITLE3=Moving
TTITLE4=Leave Here Walking
TTITLE5=Stop Using Me
TTITLE6=You Turn Slick On Me
TTITLE7=The Back Door Wolf
TTITLE8=Watergate Blues
TTITLE9=Can't Stay Here
TTITLE10=I Asked For Water
TTITLE11=Smokestack Lightnin'
TTITLE12=No Place To Go
TTITLE13=Neighbours
TTITLE14=I'm The Wolf
EXTD=
EXTT0=
EXTT1=
EXTT2=
EXTT3=
EXTT4=
EXTT5=
EXTT6=
EXTT7=
EXTT8=
EXTT9=
EXTT10=
EXTT11=
EXTT12=
EXTT13=
EXTT14=
PLAYORDER=
